G04*
G04 #@! TF.GenerationSoftware,Altium Limited,Altium Designer,21.6.4 (81)*
G04*
G04 Layer_Color=8388736*
%FSLAX44Y44*%
%MOMM*%
G71*
G04*
G04 #@! TF.SameCoordinates,711A6483-5E67-4E50-9913-089A3A40D486*
G04*
G04*
G04 #@! TF.FilePolarity,Negative*
G04*
G01*
G75*
%ADD34R,4.2032X4.2032*%
%ADD35R,1.0032X0.4832*%
%ADD36R,0.4832X1.0032*%
%ADD37R,0.6032X0.7032*%
G04:AMPARAMS|DCode=38|XSize=0.6032mm|YSize=0.7032mm|CornerRadius=0mm|HoleSize=0mm|Usage=FLASHONLY|Rotation=180.000|XOffset=0mm|YOffset=0mm|HoleType=Round|Shape=Octagon|*
%AMOCTAGOND38*
4,1,8,0.1508,-0.3516,-0.1508,-0.3516,-0.3016,-0.2008,-0.3016,0.2008,-0.1508,0.3516,0.1508,0.3516,0.3016,0.2008,0.3016,-0.2008,0.1508,-0.3516,0.0*
%
%ADD38OCTAGOND38*%

%ADD39R,0.8032X1.5032*%
%ADD40R,0.7032X0.6032*%
%ADD41R,2.9032X2.8032*%
%ADD42O,1.0032X0.4532*%
%ADD43O,0.4532X1.0032*%
%ADD44R,0.9652X0.9652*%
%ADD45R,1.6032X1.4032*%
G04:AMPARAMS|DCode=46|XSize=0.6032mm|YSize=3.2032mm|CornerRadius=0.1416mm|HoleSize=0mm|Usage=FLASHONLY|Rotation=90.000|XOffset=0mm|YOffset=0mm|HoleType=Round|Shape=RoundedRectangle|*
%AMROUNDEDRECTD46*
21,1,0.6032,2.9200,0,0,90.0*
21,1,0.3200,3.2032,0,0,90.0*
1,1,0.2832,1.4600,0.1600*
1,1,0.2832,1.4600,-0.1600*
1,1,0.2832,-1.4600,-0.1600*
1,1,0.2832,-1.4600,0.1600*
%
%ADD46ROUNDEDRECTD46*%
%ADD47R,2.2032X1.4032*%
G04:AMPARAMS|DCode=48|XSize=1.4732mm|YSize=0.9652mm|CornerRadius=0.2921mm|HoleSize=0mm|Usage=FLASHONLY|Rotation=0.000|XOffset=0mm|YOffset=0mm|HoleType=Round|Shape=RoundedRectangle|*
%AMROUNDEDRECTD48*
21,1,1.4732,0.3810,0,0,0.0*
21,1,0.8890,0.9652,0,0,0.0*
1,1,0.5842,0.4445,-0.1905*
1,1,0.5842,-0.4445,-0.1905*
1,1,0.5842,-0.4445,0.1905*
1,1,0.5842,0.4445,0.1905*
%
%ADD48ROUNDEDRECTD48*%
%ADD49R,1.3532X0.8032*%
%ADD50R,1.3532X0.5032*%
%ADD51R,0.9032X0.8032*%
%ADD52C,1.9032*%
%ADD53R,1.9032X1.9032*%
%ADD54C,3.2032*%
%ADD55C,0.8532*%
%ADD56O,2.0032X1.2032*%
%ADD57O,2.3032X1.2032*%
%ADD58C,0.8132*%
%ADD59C,0.7032*%
D34*
X153670Y106680D02*
D03*
D35*
X118672Y79180D02*
D03*
X118671Y84182D02*
D03*
X118672Y89180D02*
D03*
X118671Y94182D02*
D03*
X118672Y99180D02*
D03*
X118671Y104182D02*
D03*
X118672Y109180D02*
D03*
X118671Y114182D02*
D03*
X118672Y119180D02*
D03*
X118671Y124182D02*
D03*
X118672Y129180D02*
D03*
X118671Y134182D02*
D03*
X188671Y134182D02*
D03*
X188672Y129181D02*
D03*
X188671Y124182D02*
D03*
X188672Y119181D02*
D03*
X188671Y114182D02*
D03*
X188672Y109181D02*
D03*
X188670Y104182D02*
D03*
X188672Y99181D02*
D03*
X188670Y94182D02*
D03*
X188672Y89181D02*
D03*
X188670Y84182D02*
D03*
X188672Y79181D02*
D03*
D36*
X126170Y141678D02*
D03*
X131172Y141679D02*
D03*
X136170Y141678D02*
D03*
X141172Y141679D02*
D03*
X146170Y141678D02*
D03*
X151172Y141679D02*
D03*
X156170Y141678D02*
D03*
X161172Y141679D02*
D03*
X166170Y141678D02*
D03*
X171172Y141679D02*
D03*
X176170Y141678D02*
D03*
X181172Y141679D02*
D03*
X181172Y71679D02*
D03*
X176171Y71678D02*
D03*
X171172Y71679D02*
D03*
X166171Y71678D02*
D03*
X161172Y71679D02*
D03*
X156171Y71678D02*
D03*
X151172Y71680D02*
D03*
X146171Y71678D02*
D03*
X141172Y71680D02*
D03*
X136171Y71678D02*
D03*
X131172Y71680D02*
D03*
X126171Y71678D02*
D03*
D37*
X382710Y143510D02*
D03*
X400490D02*
D03*
X391990D02*
D03*
X184839Y153669D02*
D03*
X175840Y153670D02*
D03*
X106019Y64386D02*
D03*
X97020Y64387D02*
D03*
X19676Y126586D02*
D03*
Y144366D02*
D03*
X60080Y31750D02*
D03*
X68580D02*
D03*
X45720D02*
D03*
X37220D02*
D03*
X105850Y107950D02*
D03*
X97350D02*
D03*
X111760Y156210D02*
D03*
X120759Y156209D02*
D03*
X106234Y55688D02*
D03*
X97235Y55689D02*
D03*
X104941Y97955D02*
D03*
X95941Y97956D02*
D03*
X104988Y88441D02*
D03*
X95989Y88442D02*
D03*
X11176Y144366D02*
D03*
Y135476D02*
D03*
X19676D02*
D03*
X11176Y126586D02*
D03*
D38*
X374210Y143510D02*
D03*
D39*
X259130Y13970D02*
D03*
X278130D02*
D03*
X268630Y34970D02*
D03*
D40*
X239069Y18220D02*
D03*
Y9720D02*
D03*
X103519Y148065D02*
D03*
Y156565D02*
D03*
Y141325D02*
D03*
Y132825D02*
D03*
X41674Y123166D02*
D03*
X41675Y132165D02*
D03*
X41674Y138406D02*
D03*
X41675Y147405D02*
D03*
X103518Y117336D02*
D03*
X103519Y126335D02*
D03*
X322580Y70290D02*
D03*
Y61790D02*
D03*
X52900Y32250D02*
D03*
X52899Y23251D02*
D03*
X238762Y41681D02*
D03*
X238762Y50680D02*
D03*
X96573Y80989D02*
D03*
Y72489D02*
D03*
X105688Y72107D02*
D03*
X105689Y81107D02*
D03*
X247650Y9720D02*
D03*
Y18220D02*
D03*
X322580Y105390D02*
D03*
Y113890D02*
D03*
D41*
X72390Y134620D02*
D03*
D42*
X91890Y147120D02*
D03*
Y142120D02*
D03*
Y137120D02*
D03*
Y132120D02*
D03*
Y127120D02*
D03*
Y122120D02*
D03*
X52890D02*
D03*
Y127120D02*
D03*
Y132120D02*
D03*
Y137120D02*
D03*
Y142120D02*
D03*
Y147120D02*
D03*
D43*
X84890Y115120D02*
D03*
X79890D02*
D03*
X74890D02*
D03*
X69890D02*
D03*
X64890D02*
D03*
X59890D02*
D03*
Y154120D02*
D03*
X64890D02*
D03*
X69890D02*
D03*
X74890D02*
D03*
X79890D02*
D03*
X84890D02*
D03*
D44*
X225909Y31749D02*
D03*
X238909D02*
D03*
D45*
X66040Y102090D02*
D03*
Y68090D02*
D03*
D46*
X214630Y119500D02*
D03*
Y112500D02*
D03*
Y105500D02*
D03*
Y98500D02*
D03*
Y91500D02*
D03*
Y84500D02*
D03*
Y77500D02*
D03*
Y70500D02*
D03*
Y63500D02*
D03*
Y56500D02*
D03*
Y49500D02*
D03*
Y126500D02*
D03*
Y42500D02*
D03*
D47*
X-3240Y57270D02*
D03*
Y100270D02*
D03*
D48*
X345440Y-254D02*
D03*
X302260D02*
D03*
X345440Y-16510D02*
D03*
X302260D02*
D03*
X280670Y185420D02*
D03*
X237490D02*
D03*
X280670Y169164D02*
D03*
X237490D02*
D03*
X345440Y185420D02*
D03*
X302260D02*
D03*
X345440Y169164D02*
D03*
X302260D02*
D03*
D49*
X333752Y52455D02*
D03*
Y60455D02*
D03*
Y116455D02*
D03*
Y108455D02*
D03*
D50*
Y101955D02*
D03*
Y96955D02*
D03*
Y91955D02*
D03*
Y86955D02*
D03*
Y81955D02*
D03*
Y76955D02*
D03*
Y71955D02*
D03*
Y66955D02*
D03*
D51*
X1190Y130160D02*
D03*
X-8810D02*
D03*
X1190Y144160D02*
D03*
X-8810D02*
D03*
D52*
X41910Y176530D02*
D03*
X168910D02*
D03*
X143510D02*
D03*
X118110D02*
D03*
X92710D02*
D03*
X67310D02*
D03*
X270510Y-7620D02*
D03*
X245110D02*
D03*
X219710D02*
D03*
X194310D02*
D03*
X67310D02*
D03*
X92710D02*
D03*
X118110D02*
D03*
X143510D02*
D03*
X168910D02*
D03*
D53*
X194310Y176530D02*
D03*
X41910Y-7620D02*
D03*
D54*
X386080Y168910D02*
D03*
X0D02*
D03*
X386080Y0D02*
D03*
X0D02*
D03*
D55*
X344501Y113355D02*
D03*
Y55555D02*
D03*
D56*
X381000Y127655D02*
D03*
X381001Y41254D02*
D03*
D57*
X339501Y127656D02*
D03*
X339502Y41255D02*
D03*
D58*
X153671Y106681D02*
D03*
X143671D02*
D03*
X163671Y96678D02*
D03*
X143671D02*
D03*
X163671Y106681D02*
D03*
X163673Y116681D02*
D03*
X143674D02*
D03*
X153671D02*
D03*
Y96678D02*
D03*
D59*
X11176Y126586D02*
D03*
X352838Y65983D02*
D03*
X322962Y81955D02*
D03*
X344542Y86955D02*
D03*
X-8810Y130160D02*
D03*
M02*
