G04*
G04 #@! TF.GenerationSoftware,Altium Limited,Altium Designer,21.6.4 (81)*
G04*
G04 Layer_Color=16711935*
%FSLAX44Y44*%
%MOMM*%
G71*
G04*
G04 #@! TF.SameCoordinates,711A6483-5E67-4E50-9913-089A3A40D486*
G04*
G04*
G04 #@! TF.FilePolarity,Negative*
G04*
G01*
G75*
%ADD37R,0.6032X0.7032*%
%ADD40R,0.7032X0.6032*%
%ADD44R,0.9652X0.9652*%
%ADD52C,1.9032*%
%ADD53R,1.9032X1.9032*%
%ADD54C,3.2032*%
%ADD55C,0.8532*%
%ADD56O,2.0032X1.2032*%
%ADD57O,2.3032X1.2032*%
%ADD58C,0.8132*%
%ADD80R,0.7032X0.5032*%
%ADD81R,0.8032X1.2032*%
G04:AMPARAMS|DCode=82|XSize=0.5588mm|YSize=1.2192mm|CornerRadius=0.2032mm|HoleSize=0mm|Usage=FLASHONLY|Rotation=270.000|XOffset=0mm|YOffset=0mm|HoleType=Round|Shape=RoundedRectangle|*
%AMROUNDEDRECTD82*
21,1,0.5588,0.8128,0,0,270.0*
21,1,0.1524,1.2192,0,0,270.0*
1,1,0.4064,-0.4064,-0.0762*
1,1,0.4064,-0.4064,0.0762*
1,1,0.4064,0.4064,0.0762*
1,1,0.4064,0.4064,-0.0762*
%
%ADD82ROUNDEDRECTD82*%
G04:AMPARAMS|DCode=83|XSize=0.5588mm|YSize=1.2192mm|CornerRadius=0.2032mm|HoleSize=0mm|Usage=FLASHONLY|Rotation=0.000|XOffset=0mm|YOffset=0mm|HoleType=Round|Shape=RoundedRectangle|*
%AMROUNDEDRECTD83*
21,1,0.5588,0.8128,0,0,0.0*
21,1,0.1524,1.2192,0,0,0.0*
1,1,0.4064,0.0762,-0.4064*
1,1,0.4064,-0.0762,-0.4064*
1,1,0.4064,-0.0762,0.4064*
1,1,0.4064,0.0762,0.4064*
%
%ADD83ROUNDEDRECTD83*%
%ADD84R,2.9032X3.0032*%
%ADD85R,1.3602X0.6932*%
%ADD86R,1.3782X0.6932*%
D37*
X186250Y130810D02*
D03*
X194750D02*
D03*
X139120Y59691D02*
D03*
X130121Y59690D02*
D03*
Y49940D02*
D03*
X139120Y49941D02*
D03*
X130121Y30439D02*
D03*
X139120Y30440D02*
D03*
X130121Y40189D02*
D03*
X139120Y40190D02*
D03*
X284870Y35560D02*
D03*
X293370D02*
D03*
X331511Y18565D02*
D03*
X322512Y18564D02*
D03*
X273880Y128270D02*
D03*
X282380D02*
D03*
X282380Y120650D02*
D03*
X273880D02*
D03*
D40*
X166369Y61649D02*
D03*
X166370Y52650D02*
D03*
X166369Y44890D02*
D03*
Y36390D02*
D03*
X179069Y108639D02*
D03*
X179070Y99640D02*
D03*
D44*
X300193Y19833D02*
D03*
X313193D02*
D03*
D52*
X41910Y176530D02*
D03*
X168910D02*
D03*
X143510D02*
D03*
X118110D02*
D03*
X92710D02*
D03*
X67310D02*
D03*
X270510Y-7620D02*
D03*
X245110D02*
D03*
X219710D02*
D03*
X194310D02*
D03*
X67310D02*
D03*
X92710D02*
D03*
X118110D02*
D03*
X143510D02*
D03*
X168910D02*
D03*
D53*
X194310Y176530D02*
D03*
X41910Y-7620D02*
D03*
D54*
X386080Y168910D02*
D03*
X0D02*
D03*
X386080Y0D02*
D03*
X0D02*
D03*
D55*
X344501Y113355D02*
D03*
Y55555D02*
D03*
D56*
X381000Y127655D02*
D03*
X381001Y41254D02*
D03*
D57*
X339501Y127656D02*
D03*
X339502Y41255D02*
D03*
D58*
X153671Y106681D02*
D03*
X143671D02*
D03*
X163671Y96678D02*
D03*
X143671D02*
D03*
X163671Y106681D02*
D03*
X163673Y116681D02*
D03*
X143674D02*
D03*
X153671D02*
D03*
Y96678D02*
D03*
D80*
X204048Y142240D02*
D03*
X197272D02*
D03*
D81*
X259080Y162400D02*
D03*
X249580Y142400D02*
D03*
X268580D02*
D03*
X305410D02*
D03*
X286410D02*
D03*
X295910Y162400D02*
D03*
D82*
X301371Y86120D02*
D03*
Y81120D02*
D03*
Y76120D02*
D03*
Y71120D02*
D03*
Y66120D02*
D03*
Y61120D02*
D03*
Y56120D02*
D03*
X254889D02*
D03*
Y61120D02*
D03*
Y66120D02*
D03*
Y71120D02*
D03*
Y76120D02*
D03*
Y81120D02*
D03*
Y86120D02*
D03*
D83*
X293130Y47879D02*
D03*
X288130D02*
D03*
X283130D02*
D03*
X278130D02*
D03*
X273130D02*
D03*
X268130D02*
D03*
X263130D02*
D03*
Y94361D02*
D03*
X268130D02*
D03*
X273130D02*
D03*
X278130D02*
D03*
X283130D02*
D03*
X288130D02*
D03*
X293130D02*
D03*
D84*
X278130Y71120D02*
D03*
D85*
X326497Y8230D02*
D03*
Y-1270D02*
D03*
Y-10770D02*
D03*
D86*
X303423D02*
D03*
Y8230D02*
D03*
M02*
