G04*
G04 #@! TF.GenerationSoftware,Altium Limited,Altium Designer,21.6.4 (81)*
G04*
G04 Layer_Color=16711935*
%FSLAX44Y44*%
%MOMM*%
G71*
G04*
G04 #@! TF.SameCoordinates,711A6483-5E67-4E50-9913-089A3A40D486*
G04*
G04*
G04 #@! TF.FilePolarity,Positive*
G04*
G01*
G75*
%ADD87C,0.0000*%
D87*
X261606Y96139D02*
X264654D01*
X261606D02*
X264654D01*
X266606D02*
X269654D01*
X266606D02*
X269654D01*
X271606D02*
X274654D01*
X271606D02*
X274654D01*
X276606D02*
X279654D01*
X276606D02*
X279654D01*
X281606D02*
X284654D01*
X281606D02*
X284654D01*
X286606D02*
X289654D01*
X286606D02*
X289654D01*
X291606D02*
X294654D01*
X291606D02*
X294654D01*
X303149Y84596D02*
Y87644D01*
Y84596D02*
Y87644D01*
Y79596D02*
Y82644D01*
Y79596D02*
Y82644D01*
Y74596D02*
Y77644D01*
Y74596D02*
Y77644D01*
Y69596D02*
Y72644D01*
Y69596D02*
Y72644D01*
Y64596D02*
Y67644D01*
Y64596D02*
Y67644D01*
Y59596D02*
Y62644D01*
Y59596D02*
Y62644D01*
Y54596D02*
Y57644D01*
Y54596D02*
Y57644D01*
X291606Y46101D02*
X294654D01*
X291606D02*
X294654D01*
X286606D02*
X289654D01*
X286606D02*
X289654D01*
X281606D02*
X284654D01*
X281606D02*
X284654D01*
X276606D02*
X279654D01*
X276606D02*
X279654D01*
X271606D02*
X274654D01*
X271606D02*
X274654D01*
X266606D02*
X269654D01*
X266606D02*
X269654D01*
X261606D02*
X264654D01*
X261606D02*
X264654D01*
X253111Y54596D02*
Y57644D01*
Y54596D02*
Y57644D01*
Y59596D02*
Y62644D01*
Y59596D02*
Y62644D01*
Y64596D02*
Y67644D01*
Y64596D02*
Y67644D01*
Y69596D02*
Y72644D01*
Y69596D02*
Y72644D01*
Y74596D02*
Y77644D01*
Y74596D02*
Y77644D01*
Y79596D02*
Y82644D01*
Y79596D02*
Y82644D01*
Y84596D02*
Y87644D01*
Y84596D02*
Y87644D01*
Y46101D02*
X303149D01*
X253111D02*
Y96139D01*
X303149D01*
Y46101D02*
Y96139D01*
M02*
