G04*
G04 #@! TF.GenerationSoftware,Altium Limited,Altium Designer,21.6.4 (81)*
G04*
G04 Layer_Physical_Order=2*
G04 Layer_Color=16711680*
%FSLAX44Y44*%
%MOMM*%
G71*
G04*
G04 #@! TF.SameCoordinates,711A6483-5E67-4E50-9913-089A3A40D486*
G04*
G04*
G04 #@! TF.FilePolarity,Positive*
G04*
G01*
G75*
%ADD12C,0.1524*%
%ADD15C,0.2540*%
%ADD19R,0.4000X0.5000*%
%ADD22R,0.5000X0.4000*%
%ADD26R,0.7620X0.7620*%
%ADD61C,0.5080*%
%ADD62C,0.3810*%
%ADD65C,1.7000*%
%ADD66R,1.7000X1.7000*%
%ADD67C,3.0000*%
%ADD68C,0.6500*%
%ADD69O,1.8000X1.0000*%
%ADD70O,2.1000X1.0000*%
%ADD71C,0.5000*%
%ADD72C,0.6100*%
%ADD73R,0.5000X0.3000*%
%ADD74R,0.6000X1.0000*%
G04:AMPARAMS|DCode=75|XSize=0.3048mm|YSize=0.9652mm|CornerRadius=0.0762mm|HoleSize=0mm|Usage=FLASHONLY|Rotation=270.000|XOffset=0mm|YOffset=0mm|HoleType=Round|Shape=RoundedRectangle|*
%AMROUNDEDRECTD75*
21,1,0.3048,0.8128,0,0,270.0*
21,1,0.1524,0.9652,0,0,270.0*
1,1,0.1524,-0.4064,-0.0762*
1,1,0.1524,-0.4064,0.0762*
1,1,0.1524,0.4064,0.0762*
1,1,0.1524,0.4064,-0.0762*
%
%ADD75ROUNDEDRECTD75*%
G04:AMPARAMS|DCode=76|XSize=0.3048mm|YSize=0.9652mm|CornerRadius=0.0762mm|HoleSize=0mm|Usage=FLASHONLY|Rotation=0.000|XOffset=0mm|YOffset=0mm|HoleType=Round|Shape=RoundedRectangle|*
%AMROUNDEDRECTD76*
21,1,0.3048,0.8128,0,0,0.0*
21,1,0.1524,0.9652,0,0,0.0*
1,1,0.1524,0.0762,-0.4064*
1,1,0.1524,-0.0762,-0.4064*
1,1,0.1524,-0.0762,0.4064*
1,1,0.1524,0.0762,0.4064*
%
%ADD76ROUNDEDRECTD76*%
%ADD77R,2.7000X2.8000*%
%ADD78R,1.1570X0.4900*%
%ADD79R,1.1750X0.4900*%
G36*
X390636Y191815D02*
X395017Y190486D01*
X399054Y188328D01*
X402593Y185423D01*
X405498Y181884D01*
X407656Y177847D01*
X408985Y173466D01*
X409425Y168995D01*
X409408Y168910D01*
Y0D01*
X409425Y-85D01*
X408985Y-4556D01*
X407656Y-8937D01*
X405498Y-12974D01*
X402593Y-16513D01*
X399054Y-19418D01*
X395017Y-21576D01*
X390636Y-22905D01*
X386165Y-23345D01*
X386080Y-23328D01*
X0D01*
X-85Y-23345D01*
X-4556Y-22905D01*
X-8937Y-21576D01*
X-12974Y-19418D01*
X-16513Y-16513D01*
X-19418Y-12974D01*
X-21576Y-8937D01*
X-22905Y-4556D01*
X-23345Y-85D01*
X-23328Y0D01*
Y17780D01*
X44600D01*
Y117780D01*
X-23328D01*
Y168910D01*
X-23345Y168995D01*
X-22905Y173466D01*
X-21576Y177847D01*
X-19418Y181884D01*
X-16513Y185423D01*
X-12974Y188328D01*
X-8937Y190486D01*
X-4556Y191815D01*
X-85Y192255D01*
X0Y192238D01*
X386080D01*
X386165Y192255D01*
X390636Y191815D01*
D02*
G37*
%LPC*%
G36*
X388034Y188748D02*
X384126D01*
X380293Y187986D01*
X376683Y186490D01*
X373434Y184319D01*
X370671Y181556D01*
X369908Y180415D01*
X204080D01*
Y186300D01*
X184540D01*
Y180415D01*
X177876D01*
X177444Y181457D01*
X175878Y183498D01*
X173837Y185064D01*
X171460Y186049D01*
X168910Y186384D01*
X166360Y186049D01*
X163983Y185064D01*
X161942Y183498D01*
X160376Y181457D01*
X159391Y179081D01*
X159056Y176530D01*
X159391Y173979D01*
X160376Y171603D01*
X161942Y169562D01*
X163983Y167996D01*
X166360Y167012D01*
X168910Y166676D01*
X171460Y167012D01*
X173837Y167996D01*
X175878Y169562D01*
X177444Y171603D01*
X177876Y172645D01*
X184540D01*
Y166760D01*
X204080D01*
Y172645D01*
X365595D01*
X366401Y171664D01*
X366242Y170864D01*
Y166956D01*
X367004Y163123D01*
X368500Y159513D01*
X370671Y156264D01*
X373434Y153501D01*
X376683Y151330D01*
X380293Y149834D01*
X384126Y149072D01*
X388034D01*
X391866Y149834D01*
X395477Y151330D01*
X398726Y153501D01*
X401489Y156264D01*
X403660Y159513D01*
X405156Y163123D01*
X405918Y166956D01*
Y170864D01*
X405156Y174697D01*
X403660Y178307D01*
X401489Y181556D01*
X398726Y184319D01*
X395477Y186490D01*
X391866Y187986D01*
X388034Y188748D01*
D02*
G37*
G36*
X143510Y186384D02*
X140960Y186049D01*
X138583Y185064D01*
X136542Y183498D01*
X134976Y181457D01*
X133991Y179081D01*
X133656Y176530D01*
X133991Y173979D01*
X134976Y171603D01*
X136542Y169562D01*
X137886Y168530D01*
X137455Y167260D01*
X124165D01*
X123734Y168530D01*
X125078Y169562D01*
X126644Y171603D01*
X127628Y173979D01*
X127964Y176530D01*
X127628Y179081D01*
X126644Y181457D01*
X125078Y183498D01*
X123037Y185064D01*
X120660Y186049D01*
X118110Y186384D01*
X115560Y186049D01*
X113183Y185064D01*
X111142Y183498D01*
X109576Y181457D01*
X108591Y179081D01*
X108256Y176530D01*
X108591Y173979D01*
X109576Y171603D01*
X111142Y169562D01*
X112486Y168530D01*
X112055Y167260D01*
X98765D01*
X98334Y168530D01*
X99678Y169562D01*
X101244Y171603D01*
X102228Y173979D01*
X102564Y176530D01*
X102228Y179081D01*
X101244Y181457D01*
X99678Y183498D01*
X97637Y185064D01*
X95260Y186049D01*
X92710Y186384D01*
X90160Y186049D01*
X87783Y185064D01*
X85742Y183498D01*
X84176Y181457D01*
X83191Y179081D01*
X82856Y176530D01*
X83191Y173979D01*
X84176Y171603D01*
X85742Y169562D01*
X87086Y168530D01*
X86655Y167260D01*
X78240D01*
X74999Y170501D01*
X75844Y171603D01*
X76828Y173979D01*
X77164Y176530D01*
X76828Y179081D01*
X75844Y181457D01*
X74278Y183498D01*
X72237Y185064D01*
X69861Y186049D01*
X67310Y186384D01*
X64759Y186049D01*
X62383Y185064D01*
X60342Y183498D01*
X58776Y181457D01*
X57792Y179081D01*
X57456Y176530D01*
X57792Y173979D01*
X58776Y171603D01*
X60342Y169562D01*
X62383Y167996D01*
X64759Y167012D01*
X67310Y166676D01*
X69861Y167012D01*
X71818Y167822D01*
X74988Y164652D01*
X74462Y163382D01*
X57988D01*
X50150Y171220D01*
X50444Y171603D01*
X51428Y173979D01*
X51764Y176530D01*
X51428Y179081D01*
X50444Y181457D01*
X48878Y183498D01*
X46837Y185064D01*
X44461Y186049D01*
X41910Y186384D01*
X39360Y186049D01*
X36983Y185064D01*
X34942Y183498D01*
X33376Y181457D01*
X32392Y179081D01*
X32056Y176530D01*
X32392Y173979D01*
X33376Y171603D01*
X34942Y169562D01*
X36983Y167996D01*
X37368Y167837D01*
X37115Y166567D01*
X22877D01*
X22445Y167213D01*
X21198Y168046D01*
X19727Y168339D01*
X18256Y168046D01*
X17009Y167213D01*
X16176Y165966D01*
X15883Y164495D01*
X16176Y163024D01*
X17009Y161777D01*
X18256Y160944D01*
X19727Y160651D01*
X20630Y160831D01*
X20827Y160719D01*
X21625Y159818D01*
X21412Y158748D01*
X21705Y157277D01*
X22538Y156030D01*
X23785Y155197D01*
X25256Y154904D01*
X26727Y155197D01*
X27974Y156030D01*
X28808Y157277D01*
X28837Y157428D01*
X30942D01*
X31636Y156158D01*
X31400Y154967D01*
X31692Y153496D01*
X32525Y152249D01*
X33772Y151416D01*
X35243Y151124D01*
X36714Y151416D01*
X37961Y152249D01*
X39394Y152107D01*
X44095Y147405D01*
X43609Y146232D01*
X37440D01*
X37008Y146878D01*
X35761Y147711D01*
X34290Y148004D01*
X32819Y147711D01*
X31572Y146878D01*
X31140Y146232D01*
X-5660D01*
X-6092Y146878D01*
X-7339Y147711D01*
X-8810Y148004D01*
X-10281Y147711D01*
X-11528Y146878D01*
X-12361Y145631D01*
X-12654Y144160D01*
X-12361Y142689D01*
X-11528Y141442D01*
X-10281Y140609D01*
X-8810Y140316D01*
X-7339Y140609D01*
X-6092Y141442D01*
X-5660Y142088D01*
X31140D01*
X31572Y141442D01*
X32819Y140609D01*
X34290Y140316D01*
X35761Y140609D01*
X37008Y141442D01*
X37440Y142088D01*
X55535D01*
X63968Y133656D01*
Y105240D01*
X63322Y104808D01*
X62489Y103561D01*
X62196Y102090D01*
X62489Y100619D01*
X63322Y99372D01*
X64569Y98539D01*
X66040Y98246D01*
X66191Y98276D01*
X75184Y89284D01*
X76024Y88723D01*
X77015Y88525D01*
X97308D01*
X98299Y88723D01*
X99139Y89284D01*
X100219Y90364D01*
X102682D01*
X103417Y89874D01*
X104888Y89581D01*
X106359Y89874D01*
X107606Y90707D01*
X108439Y91954D01*
X108731Y93425D01*
X108439Y94896D01*
X107606Y96143D01*
X106359Y96976D01*
X104888Y97269D01*
X103417Y96976D01*
X102170Y96143D01*
X101769Y95544D01*
X99146D01*
X98155Y95347D01*
X97315Y94785D01*
X96235Y93705D01*
X91600D01*
X91215Y94975D01*
X91619Y95245D01*
X92321Y96296D01*
X92568Y97534D01*
X92352Y98616D01*
Y106679D01*
X92352Y107240D01*
X93622Y107366D01*
X93799Y106479D01*
X94632Y105232D01*
X95879Y104399D01*
X97350Y104106D01*
X98821Y104399D01*
X100068Y105232D01*
X100154Y105360D01*
X111957D01*
X131110Y86208D01*
X130484Y85037D01*
X130048Y85124D01*
X128577Y84831D01*
X127330Y83998D01*
X126497Y82751D01*
X126204Y81280D01*
X126320Y80696D01*
X126235Y80268D01*
Y25836D01*
X126531Y24349D01*
X127373Y23089D01*
X130349Y20113D01*
X130685Y19888D01*
X130300Y18619D01*
X107525D01*
X92785Y33359D01*
Y65690D01*
X92489Y67176D01*
X91647Y68437D01*
X90387Y69279D01*
X88900Y69574D01*
X87413Y69279D01*
X86153Y68437D01*
X85311Y67176D01*
X85015Y65690D01*
Y31750D01*
X85311Y30263D01*
X86153Y29003D01*
X103169Y11987D01*
X104430Y11145D01*
X105916Y10849D01*
X162466D01*
X163145Y9579D01*
X162819Y9091D01*
X162526Y7620D01*
X162819Y6149D01*
X163652Y4902D01*
X164899Y4069D01*
X166370Y3776D01*
X167071Y3916D01*
X167977Y3736D01*
X228261D01*
X236023Y-4027D01*
X235592Y-5070D01*
X235256Y-7620D01*
X235592Y-10171D01*
X236576Y-12547D01*
X238142Y-14588D01*
X240183Y-16154D01*
X242560Y-17139D01*
X245110Y-17474D01*
X247661Y-17139D01*
X250037Y-16154D01*
X252078Y-14588D01*
X253644Y-12547D01*
X254076Y-11505D01*
X261544D01*
X261976Y-12547D01*
X263542Y-14588D01*
X265583Y-16154D01*
X267959Y-17139D01*
X270510Y-17474D01*
X273060Y-17139D01*
X275437Y-16154D01*
X277478Y-14588D01*
X279044Y-12547D01*
X279476Y-11505D01*
X287572D01*
X289059Y-11209D01*
X290319Y-10367D01*
X305196Y4510D01*
X310568Y4510D01*
X311075Y3451D01*
Y1796D01*
X311371Y309D01*
X312213Y-951D01*
X315189Y-3927D01*
X316449Y-4769D01*
X317936Y-5065D01*
X326045D01*
X326497Y-5155D01*
X327984Y-4859D01*
X329244Y-4017D01*
X330086Y-2757D01*
X330382Y-1270D01*
X330086Y217D01*
X329244Y1477D01*
X329154Y1567D01*
X327894Y2409D01*
X326407Y2705D01*
X319754D01*
X319332Y3286D01*
X319998Y4510D01*
X325307D01*
X326587Y4255D01*
X334421D01*
X335205Y3471D01*
Y-6011D01*
X334421Y-6795D01*
X326587D01*
X325307Y-7050D01*
X319443D01*
Y-14490D01*
X325670D01*
X326497Y-14655D01*
X326950Y-14565D01*
X336030D01*
X337517Y-14269D01*
X338777Y-13427D01*
X341837Y-10367D01*
X342679Y-9107D01*
X342975Y-7620D01*
Y4255D01*
X354850D01*
X356337Y4551D01*
X357597Y5393D01*
X362588Y10384D01*
X363430Y11644D01*
X363725Y13131D01*
Y61794D01*
X363430Y63281D01*
X362588Y64541D01*
X358399Y68730D01*
X357138Y69572D01*
X355652Y69868D01*
X352838D01*
X351352Y69572D01*
X350091Y68730D01*
X349986Y68573D01*
X335881D01*
X334889Y68376D01*
X334049Y67814D01*
X320727Y54491D01*
X319556Y55117D01*
X319618Y55427D01*
Y65477D01*
X324071Y69931D01*
X324072Y69931D01*
X324427Y70286D01*
X324427Y70286D01*
X324876Y70958D01*
X325033Y71751D01*
X325033Y71751D01*
Y78805D01*
X325680Y79237D01*
X326513Y80484D01*
X326805Y81955D01*
X326513Y83426D01*
X325680Y84673D01*
X324433Y85506D01*
X322962Y85799D01*
X321491Y85506D01*
X321397Y85443D01*
X320024Y86054D01*
X319922Y86755D01*
X320692Y87907D01*
X322321Y88995D01*
X324218Y89373D01*
X324242Y89368D01*
X340056D01*
Y89327D01*
X340064Y89325D01*
X340253Y89141D01*
X340893Y87936D01*
X340698Y86955D01*
X340990Y85484D01*
X341824Y84237D01*
X343071Y83403D01*
X344542Y83111D01*
X346013Y83403D01*
X347260Y84237D01*
X348093Y85484D01*
X348386Y86955D01*
X348093Y88426D01*
X347260Y89673D01*
X346013Y90506D01*
X345462Y90615D01*
X344705Y91603D01*
X343343Y92647D01*
X341758Y93304D01*
X340056Y93528D01*
Y93512D01*
X324242D01*
Y93551D01*
X321862Y93237D01*
X319645Y92319D01*
X317742Y90858D01*
X316281Y88954D01*
X316280Y88952D01*
X315010Y89205D01*
Y117037D01*
X323039Y125066D01*
X339501D01*
X340493Y125264D01*
X341333Y125825D01*
X341894Y126665D01*
X342091Y127656D01*
X341894Y128647D01*
X341333Y129487D01*
X340493Y130049D01*
X339501Y130246D01*
X321966D01*
X320975Y130049D01*
X320135Y129487D01*
X310589Y119941D01*
X310027Y119101D01*
X309830Y118110D01*
Y78710D01*
X308305D01*
X308056Y78933D01*
X307432Y79980D01*
X307507Y80358D01*
Y81882D01*
X307349Y82675D01*
X307001Y83620D01*
X307349Y84565D01*
X307507Y85358D01*
Y86882D01*
X307349Y87675D01*
X306900Y88347D01*
X306228Y88796D01*
X305435Y88954D01*
X297307D01*
X296876Y88868D01*
X296590Y89038D01*
X296048Y89580D01*
X295878Y89866D01*
X295964Y90297D01*
Y98425D01*
X295806Y99218D01*
X295357Y99890D01*
X295202Y99994D01*
Y106852D01*
X315175Y126825D01*
X315175Y126825D01*
X315624Y127497D01*
X315782Y128290D01*
Y149840D01*
X315782Y149840D01*
X315624Y150633D01*
X315175Y151305D01*
X312181Y154299D01*
X311509Y154748D01*
X310716Y154906D01*
X310716Y154906D01*
X300292D01*
X300180Y156130D01*
X300180Y156176D01*
Y168670D01*
X291640D01*
Y159234D01*
X272732D01*
X272732Y159234D01*
X271939Y159076D01*
X271267Y158627D01*
X271267Y158627D01*
X267112Y154472D01*
X243840D01*
X243840Y154472D01*
X243047Y154314D01*
X242375Y153865D01*
X242375Y153865D01*
X239534Y151024D01*
X239414Y151028D01*
X238264Y151423D01*
Y154054D01*
X245038Y160828D01*
X254810D01*
Y156130D01*
X263350D01*
Y168670D01*
X254810D01*
Y164972D01*
X244180D01*
X243387Y164814D01*
X242715Y164365D01*
X242715Y164365D01*
X234727Y156377D01*
X234278Y155705D01*
X234121Y154912D01*
X234121Y154912D01*
Y147659D01*
X233474Y147227D01*
X232641Y145980D01*
X232348Y144509D01*
X232641Y143038D01*
X233474Y141791D01*
X234721Y140958D01*
X236192Y140665D01*
X237629Y140951D01*
X237858Y140988D01*
X238899Y140263D01*
Y132609D01*
X234092Y127802D01*
X198020D01*
Y134580D01*
X197554D01*
Y139470D01*
X201042D01*
X201042Y139470D01*
Y139470D01*
X202170Y139813D01*
X202312Y139827D01*
X203200Y139650D01*
X204191Y139847D01*
X205031Y140409D01*
X205593Y141249D01*
X205790Y142240D01*
Y151130D01*
X205593Y152121D01*
X205031Y152961D01*
X202280Y155713D01*
X201439Y156274D01*
X200448Y156471D01*
X185006D01*
X184015Y156274D01*
X183175Y155713D01*
X182614Y154873D01*
X182417Y153882D01*
X182614Y152891D01*
X183175Y152050D01*
X184015Y151489D01*
X185006Y151292D01*
X191509D01*
X191677Y151083D01*
X192072Y150022D01*
X191448Y149089D01*
X191156Y147618D01*
X191448Y146147D01*
X192282Y144900D01*
X193410Y144146D01*
Y141822D01*
X193401Y141776D01*
X193410D01*
Y134580D01*
X191480D01*
Y127040D01*
X193148D01*
X193226Y126647D01*
X193675Y125975D01*
X195335Y124315D01*
X195333Y124183D01*
X194750Y123136D01*
X194310Y123224D01*
X192839Y122931D01*
X191592Y122098D01*
X190759Y120851D01*
X190466Y119380D01*
X190759Y117909D01*
X191592Y116662D01*
X192839Y115829D01*
X194310Y115536D01*
X195072Y115688D01*
X212558Y98202D01*
Y87650D01*
X211912Y87218D01*
X211079Y85971D01*
X210786Y84500D01*
X211079Y83029D01*
X211912Y81782D01*
X213159Y80949D01*
X214630Y80656D01*
X216101Y80949D01*
X217348Y81782D01*
X218181Y83029D01*
X218474Y84500D01*
X218181Y85971D01*
X217348Y87218D01*
X216702Y87650D01*
Y99060D01*
X216702Y99060D01*
X216544Y99853D01*
X216095Y100525D01*
X216095Y100525D01*
X198002Y118618D01*
X198154Y119380D01*
X197861Y120851D01*
X197028Y122098D01*
X196927Y122166D01*
X196921Y122412D01*
X198128Y123658D01*
X234950D01*
X234950Y123658D01*
X235743Y123816D01*
X236415Y124265D01*
X242436Y130286D01*
X242436Y130286D01*
X242885Y130958D01*
X243043Y131751D01*
Y148673D01*
X244698Y150328D01*
X267970D01*
X267970Y150328D01*
X268763Y150486D01*
X269435Y150935D01*
X273590Y155090D01*
X293672D01*
X293672Y155090D01*
X294465Y155248D01*
X295137Y155697D01*
X295570Y156130D01*
X298527D01*
X298652Y154860D01*
X298092Y154748D01*
X297419Y154299D01*
X297419Y154299D01*
X296370Y153250D01*
X295921Y152578D01*
X295763Y151785D01*
X295763Y151785D01*
Y143042D01*
X290680D01*
Y148670D01*
X282140D01*
Y137270D01*
X280086Y135216D01*
X279637Y134544D01*
X279479Y133751D01*
X279479Y133751D01*
Y132040D01*
X279110D01*
Y125690D01*
X279110Y124420D01*
X279110Y123230D01*
Y118170D01*
X278432Y117587D01*
X277653Y117643D01*
X277295Y118701D01*
X277522Y119040D01*
X277814Y120511D01*
X277522Y121982D01*
X277150Y122539D01*
X277150Y124500D01*
X277150Y125690D01*
Y132040D01*
X275222D01*
Y133830D01*
X275222Y133830D01*
X275064Y134623D01*
X274615Y135295D01*
X274615Y135295D01*
X272850Y137060D01*
Y148670D01*
X264310D01*
Y136130D01*
X267920D01*
X270740Y133310D01*
X270610Y132040D01*
X270610D01*
Y125690D01*
X270610Y124420D01*
Y123620D01*
X269712Y122722D01*
X254858D01*
X251652Y125928D01*
Y136130D01*
X253850D01*
Y148670D01*
X245310D01*
Y136130D01*
X247508D01*
Y125070D01*
X247508Y125070D01*
X247666Y124277D01*
X248115Y123605D01*
X252535Y119185D01*
X252535Y119185D01*
X253207Y118736D01*
X254000Y118578D01*
X270610D01*
Y116890D01*
X234950D01*
X233959Y116693D01*
X233119Y116131D01*
X221689Y104701D01*
X221127Y103861D01*
X220930Y102870D01*
Y81083D01*
X218637Y78790D01*
X154743D01*
X114304Y119229D01*
X114334Y119380D01*
X114041Y120851D01*
X113208Y122098D01*
X111961Y122931D01*
X110490Y123224D01*
X109019Y122931D01*
X107772Y122098D01*
X106939Y120851D01*
X106646Y119380D01*
X106939Y117909D01*
X107772Y116662D01*
X109019Y115829D01*
X110490Y115536D01*
X110641Y115566D01*
X114975Y111233D01*
X114165Y110246D01*
X114021Y110343D01*
X113030Y110540D01*
X100154D01*
X100068Y110668D01*
X98821Y111501D01*
X97350Y111794D01*
X95879Y111501D01*
X94632Y110668D01*
X93799Y109421D01*
X93633Y108588D01*
X93506Y107950D01*
X92310Y107949D01*
X92106Y108974D01*
X91404Y110024D01*
X91189Y110239D01*
X90972Y110384D01*
Y136302D01*
X93568Y138898D01*
X131311D01*
X141602Y128607D01*
Y116681D01*
X141760Y115888D01*
X142209Y115216D01*
X142881Y114767D01*
X143674Y114609D01*
X144466Y114767D01*
X145139Y115216D01*
X145588Y115888D01*
X145745Y116681D01*
Y129465D01*
X145745Y129465D01*
X145588Y130258D01*
X145139Y130930D01*
X133634Y142435D01*
X132962Y142884D01*
X132169Y143042D01*
X132169Y143042D01*
X126399D01*
X126013Y144312D01*
X126891Y144898D01*
X127724Y146145D01*
X127860Y146830D01*
X128750Y147624D01*
X129215Y147628D01*
X130310Y147411D01*
X131781Y147703D01*
X133028Y148537D01*
X133628Y149435D01*
X134137Y149526D01*
X134824Y149491D01*
X135034Y149427D01*
X135712Y148412D01*
X136959Y147579D01*
X138430Y147286D01*
X139901Y147579D01*
X141148Y148412D01*
X141981Y149659D01*
X142274Y151130D01*
X141981Y152601D01*
X141148Y153848D01*
X139901Y154681D01*
X138430Y154974D01*
X137884Y154865D01*
X134780Y157969D01*
X135307Y159239D01*
X137541D01*
X144888Y151892D01*
X144736Y151130D01*
X145028Y149659D01*
X145862Y148412D01*
X147109Y147579D01*
X148580Y147286D01*
X150051Y147579D01*
X151298Y148412D01*
X152131Y149659D01*
X152424Y151130D01*
X152342Y151542D01*
X153512Y152168D01*
X155769Y149911D01*
X155769Y149911D01*
X156441Y149462D01*
X157234Y149304D01*
X163272D01*
X163703Y148658D01*
X164950Y147825D01*
X166421Y147532D01*
X167892Y147825D01*
X169139Y148658D01*
X169973Y149905D01*
X170012Y150104D01*
X171432Y150734D01*
X171558Y150658D01*
Y124565D01*
X171558Y124565D01*
X171716Y123772D01*
X172165Y123100D01*
X181418Y113847D01*
X181085Y112383D01*
X180540Y112190D01*
X179069Y112483D01*
X177598Y112190D01*
X177177Y111909D01*
X175299D01*
Y109010D01*
X175225Y108639D01*
X175299Y108268D01*
Y105369D01*
X177177D01*
X177598Y105088D01*
X179069Y104795D01*
X180540Y105088D01*
X180961Y105369D01*
X182839D01*
Y108268D01*
X182913Y108639D01*
X182839Y109010D01*
Y110629D01*
X184109Y111156D01*
X190266Y104999D01*
X190114Y104237D01*
X190406Y102766D01*
X191240Y101519D01*
X192487Y100686D01*
X193958Y100393D01*
X195429Y100686D01*
X196676Y101519D01*
X197509Y102766D01*
X197802Y104237D01*
X197509Y105708D01*
X196676Y106955D01*
X195429Y107788D01*
X193958Y108081D01*
X193195Y107929D01*
X175702Y125423D01*
Y127208D01*
X176644Y127712D01*
X176972Y127762D01*
X178326Y127492D01*
X178953Y127617D01*
X179174Y127573D01*
X182980D01*
Y127040D01*
X189520D01*
Y134580D01*
X182980D01*
Y134047D01*
X181049D01*
X181044Y134054D01*
X179797Y134887D01*
X178326Y135180D01*
X176972Y134910D01*
X176644Y134960D01*
X175702Y135464D01*
Y152760D01*
X175544Y153553D01*
X175095Y154225D01*
X175095Y154225D01*
X170375Y158945D01*
X169703Y159394D01*
X168910Y159552D01*
X168910Y159552D01*
X163418D01*
X151750Y171220D01*
X152044Y171603D01*
X153028Y173979D01*
X153364Y176530D01*
X153028Y179081D01*
X152044Y181457D01*
X150478Y183498D01*
X148437Y185064D01*
X146060Y186049D01*
X143510Y186384D01*
D02*
G37*
G36*
X102870Y137194D02*
X101399Y136901D01*
X100152Y136068D01*
X99319Y134821D01*
X99026Y133350D01*
X99319Y131879D01*
X100152Y130632D01*
X101399Y129799D01*
X102870Y129506D01*
X104341Y129799D01*
X105588Y130632D01*
X105867Y131049D01*
X124631D01*
X124719Y130609D01*
X125552Y129362D01*
X126799Y128529D01*
X128270Y128236D01*
X129741Y128529D01*
X130988Y129362D01*
X131821Y130609D01*
X132114Y132080D01*
X131821Y133551D01*
X130988Y134798D01*
X129741Y135631D01*
X128270Y135924D01*
X126799Y135631D01*
X126143Y135193D01*
X106173D01*
X105588Y136068D01*
X104341Y136901D01*
X102870Y137194D01*
D02*
G37*
G36*
X-8810Y134004D02*
X-10281Y133711D01*
X-11528Y132878D01*
X-12361Y131631D01*
X-12654Y130160D01*
X-12361Y128689D01*
X-11528Y127442D01*
X-10281Y126608D01*
X-8810Y126316D01*
X-7339Y126608D01*
X-6092Y127442D01*
X-5660Y128088D01*
X6567D01*
X7435Y127104D01*
X7332Y126586D01*
X7625Y125115D01*
X8458Y123868D01*
X9705Y123035D01*
X11176Y122742D01*
X12647Y123035D01*
X13894Y123868D01*
X14727Y125115D01*
X15020Y126586D01*
X14727Y128057D01*
X13894Y129304D01*
X12647Y130138D01*
X11176Y130430D01*
X10414Y130279D01*
X9068Y131625D01*
X8395Y132074D01*
X7602Y132232D01*
X7602Y132232D01*
X-5660D01*
X-6092Y132878D01*
X-7339Y133711D01*
X-8810Y134004D01*
D02*
G37*
G36*
X344501Y117964D02*
X342737Y117613D01*
X341242Y116614D01*
X340243Y115119D01*
X339893Y113355D01*
X340243Y111592D01*
X341242Y110097D01*
X342737Y109098D01*
X344501Y108747D01*
X346265Y109098D01*
X347760Y110097D01*
X348759Y111592D01*
X349109Y113355D01*
X348759Y115119D01*
X347760Y116614D01*
X346265Y117613D01*
X344501Y117964D01*
D02*
G37*
G36*
X179535Y100488D02*
X178544Y100291D01*
X177704Y99730D01*
X177242Y99268D01*
X163671D01*
X162680Y99071D01*
X161840Y98510D01*
X161278Y97670D01*
X161081Y96678D01*
X161278Y95687D01*
X161840Y94847D01*
X162680Y94286D01*
X163671Y94089D01*
X178315D01*
X179306Y94286D01*
X180146Y94847D01*
X181366Y96067D01*
X181928Y96908D01*
X182125Y97899D01*
X181928Y98890D01*
X181366Y99730D01*
X180526Y100291D01*
X179535Y100488D01*
D02*
G37*
G36*
X310568Y-7050D02*
X296278D01*
Y-14490D01*
X310568D01*
Y-7050D01*
D02*
G37*
G36*
X219710Y2234D02*
X217160Y1899D01*
X214783Y914D01*
X212742Y-652D01*
X211176Y-2693D01*
X210191Y-5070D01*
X209856Y-7620D01*
X210191Y-10171D01*
X211176Y-12547D01*
X212742Y-14588D01*
X214783Y-16154D01*
X217160Y-17139D01*
X219710Y-17474D01*
X222260Y-17139D01*
X224637Y-16154D01*
X226678Y-14588D01*
X228244Y-12547D01*
X229228Y-10171D01*
X229564Y-7620D01*
X229228Y-5070D01*
X228244Y-2693D01*
X226678Y-652D01*
X224637Y914D01*
X222260Y1899D01*
X219710Y2234D01*
D02*
G37*
G36*
X194310D02*
X191759Y1899D01*
X189383Y914D01*
X187342Y-652D01*
X185776Y-2693D01*
X184792Y-5070D01*
X184456Y-7620D01*
X184792Y-10171D01*
X185776Y-12547D01*
X187342Y-14588D01*
X189383Y-16154D01*
X191759Y-17139D01*
X194310Y-17474D01*
X196861Y-17139D01*
X199237Y-16154D01*
X201278Y-14588D01*
X202844Y-12547D01*
X203829Y-10171D01*
X204164Y-7620D01*
X203829Y-5070D01*
X202844Y-2693D01*
X201278Y-652D01*
X199237Y914D01*
X196861Y1899D01*
X194310Y2234D01*
D02*
G37*
G36*
X168910D02*
X166360Y1899D01*
X163983Y914D01*
X161942Y-652D01*
X160376Y-2693D01*
X159391Y-5070D01*
X159056Y-7620D01*
X159391Y-10171D01*
X160376Y-12547D01*
X161942Y-14588D01*
X163983Y-16154D01*
X166360Y-17139D01*
X168910Y-17474D01*
X171460Y-17139D01*
X173837Y-16154D01*
X175878Y-14588D01*
X177444Y-12547D01*
X178428Y-10171D01*
X178764Y-7620D01*
X178428Y-5070D01*
X177444Y-2693D01*
X175878Y-652D01*
X173837Y914D01*
X171460Y1899D01*
X168910Y2234D01*
D02*
G37*
G36*
X143510D02*
X140960Y1899D01*
X138583Y914D01*
X136542Y-652D01*
X134976Y-2693D01*
X133991Y-5070D01*
X133656Y-7620D01*
X133991Y-10171D01*
X134976Y-12547D01*
X136542Y-14588D01*
X138583Y-16154D01*
X140960Y-17139D01*
X143510Y-17474D01*
X146060Y-17139D01*
X148437Y-16154D01*
X150478Y-14588D01*
X152044Y-12547D01*
X153028Y-10171D01*
X153364Y-7620D01*
X153028Y-5070D01*
X152044Y-2693D01*
X150478Y-652D01*
X148437Y914D01*
X146060Y1899D01*
X143510Y2234D01*
D02*
G37*
G36*
X118110D02*
X115560Y1899D01*
X113183Y914D01*
X111142Y-652D01*
X109576Y-2693D01*
X108591Y-5070D01*
X108256Y-7620D01*
X108591Y-10171D01*
X109576Y-12547D01*
X111142Y-14588D01*
X113183Y-16154D01*
X115560Y-17139D01*
X118110Y-17474D01*
X120660Y-17139D01*
X123037Y-16154D01*
X125078Y-14588D01*
X126644Y-12547D01*
X127628Y-10171D01*
X127964Y-7620D01*
X127628Y-5070D01*
X126644Y-2693D01*
X125078Y-652D01*
X123037Y914D01*
X120660Y1899D01*
X118110Y2234D01*
D02*
G37*
G36*
X92710D02*
X90160Y1899D01*
X87783Y914D01*
X85742Y-652D01*
X84176Y-2693D01*
X83191Y-5070D01*
X82856Y-7620D01*
X83191Y-10171D01*
X84176Y-12547D01*
X85742Y-14588D01*
X87783Y-16154D01*
X90160Y-17139D01*
X92710Y-17474D01*
X95260Y-17139D01*
X97637Y-16154D01*
X99678Y-14588D01*
X101244Y-12547D01*
X102228Y-10171D01*
X102564Y-7620D01*
X102228Y-5070D01*
X101244Y-2693D01*
X99678Y-652D01*
X97637Y914D01*
X95260Y1899D01*
X92710Y2234D01*
D02*
G37*
%LPD*%
G36*
X121455Y144898D02*
X122332Y144312D01*
X121947Y143042D01*
X92710D01*
X92710Y143042D01*
X91917Y142884D01*
X91245Y142435D01*
X87435Y138625D01*
X86986Y137953D01*
X86828Y137160D01*
X86828Y137160D01*
Y110384D01*
X86611Y110239D01*
X85909Y109189D01*
X85663Y107950D01*
X85878Y106868D01*
Y97750D01*
X86124Y96511D01*
X86826Y95461D01*
X87041Y95245D01*
X87446Y94975D01*
X87061Y93705D01*
X78088D01*
X69854Y101939D01*
X69884Y102090D01*
X69591Y103561D01*
X68758Y104808D01*
X68112Y105240D01*
Y134514D01*
X67954Y135307D01*
X67505Y135979D01*
X67505Y135979D01*
X59113Y144371D01*
X59599Y145544D01*
X121023D01*
X121455Y144898D01*
D02*
G37*
G36*
X301140Y141553D02*
Y136130D01*
X303338D01*
Y127198D01*
X298862Y122722D01*
X286548D01*
X285650Y123620D01*
X285650Y124500D01*
X285650Y125690D01*
Y132040D01*
X284566D01*
X284040Y133310D01*
X285512Y134782D01*
X286145Y135205D01*
X287070Y136130D01*
X290680D01*
Y138898D01*
X296942D01*
X296942Y138898D01*
X297735Y139056D01*
X298407Y139505D01*
X299300Y140398D01*
X299300Y140398D01*
X299749Y141070D01*
X299870Y141678D01*
X301140Y141553D01*
D02*
G37*
G36*
X299844Y117384D02*
X299847Y117357D01*
X291665Y109175D01*
X291216Y108503D01*
X291058Y107710D01*
X291058Y107710D01*
Y100949D01*
X289788Y100270D01*
X289685Y100339D01*
X288892Y100497D01*
X287368D01*
X286990Y100422D01*
X285943Y101046D01*
X285720Y101295D01*
Y109300D01*
X285523Y110291D01*
X284961Y111131D01*
X280483Y115610D01*
X281008Y116880D01*
X285650D01*
Y118578D01*
X299272D01*
X299844Y117384D01*
D02*
G37*
G36*
X258019Y105360D02*
X257776Y104140D01*
X258069Y102669D01*
X258902Y101422D01*
X260018Y100677D01*
X260157Y100552D01*
X260463Y99231D01*
X260454Y99218D01*
X260296Y98425D01*
Y90297D01*
X260382Y89866D01*
X260212Y89580D01*
X259670Y89038D01*
X259384Y88868D01*
X258953Y88954D01*
X250825D01*
X250032Y88796D01*
X249360Y88347D01*
X248911Y87675D01*
X248753Y86882D01*
Y85358D01*
X248911Y84565D01*
X249259Y83620D01*
X248911Y82675D01*
X248753Y81882D01*
Y80358D01*
X248911Y79565D01*
X249360Y78893D01*
Y78347D01*
X248911Y77675D01*
X248753Y76882D01*
Y75358D01*
X248911Y74565D01*
X249259Y73620D01*
X248911Y72675D01*
X248753Y71882D01*
Y70358D01*
X248911Y69565D01*
X249259Y68620D01*
X248911Y67675D01*
X248753Y66882D01*
Y65358D01*
X248911Y64565D01*
X249360Y63893D01*
Y63347D01*
X248911Y62675D01*
X248753Y61882D01*
Y60358D01*
X248911Y59565D01*
X249259Y58620D01*
X248911Y57675D01*
X248753Y56882D01*
Y55358D01*
X248911Y54565D01*
X249360Y53893D01*
X250032Y53444D01*
X250825Y53286D01*
X258953D01*
X259384Y53372D01*
X259670Y53202D01*
X260212Y52660D01*
X260382Y52374D01*
X260296Y51943D01*
Y43815D01*
X260454Y43022D01*
X260903Y42350D01*
X261575Y41901D01*
X262368Y41743D01*
X263892D01*
X264685Y41901D01*
X265357Y42350D01*
X265903D01*
X266575Y41901D01*
X267368Y41743D01*
X268892D01*
X269685Y41901D01*
X270630Y42249D01*
X271575Y41901D01*
X272368Y41743D01*
X273892D01*
X274685Y41901D01*
X275357Y42350D01*
X275903D01*
X276575Y41901D01*
X277368Y41743D01*
X278892D01*
X279685Y41901D01*
X280357Y42350D01*
X280903D01*
X281575Y41901D01*
X282368Y41743D01*
X283892D01*
X283904Y41746D01*
X285090Y40955D01*
X285192Y40336D01*
X284291Y39330D01*
X281600D01*
Y31800D01*
X281600Y31790D01*
X281576Y30530D01*
X257613D01*
X246430Y41713D01*
Y47682D01*
X246694Y47859D01*
X247527Y49106D01*
X247820Y50577D01*
X247527Y52048D01*
X246694Y53295D01*
X245447Y54128D01*
X243976Y54420D01*
X242505Y54128D01*
X241258Y53295D01*
X240425Y52048D01*
X240132Y50577D01*
X240425Y49106D01*
X241250Y47870D01*
Y40640D01*
X241326Y40260D01*
X240155Y39635D01*
X234332Y45458D01*
X233660Y45907D01*
X232867Y46065D01*
X232826Y46135D01*
X233064Y47477D01*
X233736Y47926D01*
X246407Y60597D01*
X246407Y60597D01*
X246856Y61269D01*
X247014Y62062D01*
X247013Y62062D01*
Y90146D01*
X252191Y95323D01*
X252730Y95216D01*
X254201Y95509D01*
X255448Y96342D01*
X256281Y97589D01*
X256574Y99060D01*
X256281Y100531D01*
X255448Y101778D01*
X254201Y102611D01*
X252730Y102904D01*
X251259Y102611D01*
X250012Y101778D01*
X249179Y100531D01*
X248886Y99060D01*
X248889Y99044D01*
X248884Y99040D01*
X248859Y99040D01*
X247568Y99644D01*
X247391Y100531D01*
X246558Y101778D01*
X245311Y102611D01*
X243840Y102904D01*
X242369Y102611D01*
X241122Y101778D01*
X240289Y100531D01*
X239996Y99060D01*
X240289Y97589D01*
X240325Y97535D01*
X239835Y97044D01*
X239386Y96372D01*
X239228Y95579D01*
X239228Y95579D01*
Y92952D01*
X237958Y92273D01*
X237691Y92451D01*
X236220Y92744D01*
X234749Y92451D01*
X233502Y91618D01*
X232669Y90371D01*
X232460Y89320D01*
X231190Y89445D01*
Y100527D01*
X237293Y106630D01*
X257339D01*
X258019Y105360D01*
D02*
G37*
G36*
X291575Y88383D02*
X292368Y88225D01*
X293892D01*
X294323Y88311D01*
X294609Y88141D01*
X295151Y87599D01*
X295321Y87313D01*
X295235Y86882D01*
Y85358D01*
X295393Y84565D01*
X295741Y83620D01*
X295393Y82675D01*
X295235Y81882D01*
Y80358D01*
X295310Y79980D01*
X294686Y78933D01*
X294437Y78710D01*
X283130D01*
X282139Y78513D01*
X281299Y77951D01*
X276299Y72951D01*
X275737Y72111D01*
X275540Y71120D01*
X275737Y70129D01*
X276299Y69289D01*
X277139Y68727D01*
X278130Y68530D01*
X279121Y68727D01*
X279961Y69289D01*
X284203Y73530D01*
X294437D01*
X294686Y73307D01*
X295310Y72260D01*
X295235Y71882D01*
Y70358D01*
X295393Y69565D01*
X295741Y68620D01*
X295393Y67675D01*
X295235Y66882D01*
Y65358D01*
X295393Y64565D01*
X295842Y63893D01*
Y63347D01*
X295393Y62675D01*
X295235Y61882D01*
Y60358D01*
X295393Y59565D01*
X295741Y58620D01*
X295393Y57675D01*
X295235Y56882D01*
Y55358D01*
X295321Y54927D01*
X295151Y54641D01*
X294609Y54099D01*
X294323Y53929D01*
X293892Y54015D01*
X292368D01*
X291575Y53857D01*
X290903Y53408D01*
X290357D01*
X289685Y53857D01*
X288892Y54015D01*
X287368D01*
X286575Y53857D01*
X285630Y53509D01*
X284685Y53857D01*
X283892Y54015D01*
X282368D01*
X281575Y53857D01*
X280903Y53408D01*
X280357D01*
X279685Y53857D01*
X278892Y54015D01*
X277368D01*
X276575Y53857D01*
X275903Y53408D01*
X275357D01*
X274685Y53857D01*
X273892Y54015D01*
X272368D01*
X271575Y53857D01*
X270630Y53509D01*
X269685Y53857D01*
X268892Y54015D01*
X267368D01*
X266575Y53857D01*
X265903Y53408D01*
X265357D01*
X264685Y53857D01*
X263892Y54015D01*
X262368D01*
X261937Y53929D01*
X261651Y54099D01*
X261109Y54641D01*
X260939Y54927D01*
X261025Y55358D01*
Y56882D01*
X260867Y57675D01*
X260519Y58620D01*
X260867Y59565D01*
X261025Y60358D01*
Y61882D01*
X260867Y62675D01*
X260418Y63347D01*
Y63893D01*
X260867Y64565D01*
X261025Y65358D01*
Y66882D01*
X260867Y67675D01*
X260519Y68620D01*
X260867Y69565D01*
X261025Y70358D01*
Y71882D01*
X260867Y72675D01*
X260519Y73620D01*
X260867Y74565D01*
X261025Y75358D01*
Y76882D01*
X260867Y77675D01*
X260418Y78347D01*
Y78893D01*
X260867Y79565D01*
X261025Y80358D01*
Y81882D01*
X260867Y82675D01*
X260519Y83620D01*
X260867Y84565D01*
X261025Y85358D01*
Y86882D01*
X260939Y87313D01*
X261109Y87599D01*
X261651Y88141D01*
X261937Y88311D01*
X262368Y88225D01*
X263892D01*
X264685Y88383D01*
X265357Y88832D01*
X265903D01*
X266575Y88383D01*
X267368Y88225D01*
X268892D01*
X269685Y88383D01*
X270630Y88731D01*
X271575Y88383D01*
X272368Y88225D01*
X273892D01*
X274685Y88383D01*
X275357Y88832D01*
X275903D01*
X276575Y88383D01*
X277368Y88225D01*
X278892D01*
X279685Y88383D01*
X280357Y88832D01*
X280903D01*
X281575Y88383D01*
X282368Y88225D01*
X283892D01*
X284685Y88383D01*
X285630Y88731D01*
X286575Y88383D01*
X287368Y88225D01*
X288892D01*
X289685Y88383D01*
X290357Y88832D01*
X290903D01*
X291575Y88383D01*
D02*
G37*
G36*
X232669Y87429D02*
X233502Y86182D01*
X234148Y85750D01*
Y70708D01*
X226796Y63356D01*
X173623D01*
X173623Y63356D01*
X172830Y63198D01*
X172158Y62749D01*
X172158Y62749D01*
X170054Y60645D01*
X168884Y61271D01*
X168959Y61649D01*
X168762Y62640D01*
X168200Y63480D01*
X167360Y64042D01*
X166369Y64239D01*
X159439D01*
X158448Y64042D01*
X157608Y63480D01*
X148787Y54660D01*
X142412D01*
X142390Y55921D01*
X142390Y55930D01*
Y63461D01*
X141365D01*
Y69286D01*
X141981Y70209D01*
X142274Y71680D01*
X141981Y73151D01*
X141148Y74398D01*
X139901Y75231D01*
X138430Y75523D01*
X136959Y75231D01*
X135712Y74398D01*
X135275Y73743D01*
X134005Y74128D01*
Y80268D01*
X133848Y81057D01*
X133892Y81280D01*
X133805Y81716D01*
X134976Y82342D01*
X148029Y69289D01*
X148869Y68727D01*
X149860Y68530D01*
X222250D01*
X223241Y68727D01*
X224081Y69289D01*
X230431Y75639D01*
X230993Y76479D01*
X231190Y77470D01*
Y88355D01*
X232460Y88480D01*
X232669Y87429D01*
D02*
G37*
G36*
X234178Y54228D02*
X231413Y51463D01*
X178876D01*
X178444Y52109D01*
X178343Y52176D01*
Y53704D01*
X178836Y54034D01*
X179268Y54680D01*
X232012D01*
X232012Y54680D01*
X232805Y54838D01*
X233368Y55214D01*
X234178Y54228D01*
D02*
G37*
G36*
X135712Y68962D02*
X136185Y68645D01*
Y63461D01*
X135850D01*
Y55921D01*
X139097D01*
X139119Y54660D01*
X138128Y54463D01*
X137288Y53901D01*
X136727Y53061D01*
X136529Y52070D01*
X136727Y51079D01*
X136913Y50799D01*
X136727Y50521D01*
X136530Y49530D01*
Y40190D01*
Y33443D01*
X136727Y32452D01*
X137289Y31612D01*
X138129Y31051D01*
X139120Y30854D01*
X140111Y31051D01*
X140951Y31612D01*
X141513Y32452D01*
X141710Y33443D01*
Y40190D01*
Y49480D01*
X149860D01*
X150851Y49677D01*
X151691Y50239D01*
X160512Y59059D01*
X166369D01*
X166747Y59135D01*
X167373Y57964D01*
X166643Y57234D01*
X166194Y56562D01*
X166066Y55920D01*
X162600D01*
Y52444D01*
X162485Y51868D01*
Y45720D01*
X162599Y45148D01*
Y41620D01*
X170139D01*
Y41921D01*
X232009D01*
X252862Y21068D01*
X253534Y20619D01*
X254327Y20461D01*
X254327Y20461D01*
X274239D01*
X274870Y19191D01*
X274746Y19004D01*
X274292Y18619D01*
X160893D01*
X160508Y19888D01*
X160844Y20113D01*
X169116Y28386D01*
X169958Y29646D01*
X170254Y31132D01*
Y35435D01*
X170139Y36011D01*
Y39660D01*
X162599D01*
Y36011D01*
X162484Y35435D01*
Y32741D01*
X156488Y26745D01*
X134705D01*
X134005Y27445D01*
Y69231D01*
X135275Y69616D01*
X135712Y68962D01*
D02*
G37*
G36*
X350091Y63236D02*
X351352Y62394D01*
X352838Y62098D01*
X354043D01*
X355956Y60185D01*
Y14740D01*
X353241Y12025D01*
X334749D01*
Y14795D01*
X334781D01*
Y22335D01*
X328242D01*
Y14795D01*
X328274D01*
Y12025D01*
X326950D01*
X326497Y12115D01*
X325670Y11950D01*
X319443Y11950D01*
X318845Y12973D01*
Y14679D01*
X321183D01*
X322670Y14975D01*
X323930Y15817D01*
X324772Y17077D01*
X325068Y18564D01*
X324772Y20051D01*
X323930Y21311D01*
X322670Y22153D01*
X321183Y22449D01*
X318845D01*
Y32681D01*
X323535Y37371D01*
X339502D01*
X340989Y37666D01*
X342249Y38509D01*
X343091Y39769D01*
X343387Y41255D01*
X343091Y42742D01*
X342249Y44002D01*
X340989Y44844D01*
X339502Y45140D01*
X321925D01*
X320439Y44844D01*
X319179Y44002D01*
X312213Y37037D01*
X311371Y35777D01*
X311075Y34290D01*
Y18564D01*
Y13010D01*
X310568Y11950D01*
X309805Y11950D01*
X304251D01*
X304078Y11984D01*
Y14753D01*
X305273D01*
Y24913D01*
X302145D01*
Y25965D01*
X301948Y26956D01*
X301387Y27796D01*
X299412Y29771D01*
X298572Y30333D01*
X297581Y30530D01*
X296664D01*
X296640Y31790D01*
X296640Y31800D01*
Y39330D01*
X295840D01*
Y43191D01*
X295964Y43815D01*
Y45328D01*
X317815D01*
X318806Y45525D01*
X319646Y46086D01*
X336953Y63393D01*
X349986D01*
X350091Y63236D01*
D02*
G37*
G36*
X295113Y24913D02*
Y14753D01*
X296308D01*
Y11950D01*
X296278D01*
Y6579D01*
X285963Y-3735D01*
X279476D01*
X279044Y-2693D01*
X277478Y-652D01*
X275437Y914D01*
X273060Y1899D01*
X270510Y2234D01*
X267959Y1899D01*
X265583Y914D01*
X263542Y-652D01*
X261976Y-2693D01*
X261544Y-3735D01*
X254076D01*
X253644Y-2693D01*
X252078Y-652D01*
X250037Y914D01*
X247661Y1899D01*
X245110Y2234D01*
X242560Y1899D01*
X241517Y1467D01*
X233405Y9579D01*
X233930Y10849D01*
X274245D01*
Y10160D01*
X274541Y8673D01*
X275383Y7413D01*
X276643Y6571D01*
X278130Y6275D01*
X279617Y6571D01*
X280877Y7413D01*
X281719Y8673D01*
X282015Y10160D01*
Y15240D01*
X281888Y15875D01*
X282015Y16510D01*
X281719Y17997D01*
X280921Y19191D01*
X280997Y19557D01*
X281361Y20461D01*
X283949D01*
X286190Y18220D01*
X286147Y17785D01*
X285314Y16538D01*
X285021Y15067D01*
X285314Y13596D01*
X286147Y12349D01*
X287394Y11516D01*
X288865Y11223D01*
X290336Y11516D01*
X291583Y12349D01*
X292416Y13596D01*
X292709Y15067D01*
X292416Y16538D01*
X291583Y17785D01*
X290781Y18322D01*
Y18631D01*
X290781Y18631D01*
X290623Y19424D01*
X290174Y20096D01*
X290174Y20096D01*
X286272Y23998D01*
X286149Y24080D01*
X286534Y25350D01*
X294024D01*
X295113Y24913D01*
D02*
G37*
%LPC*%
G36*
X344501Y60164D02*
X342737Y59813D01*
X341242Y58814D01*
X340243Y57319D01*
X339893Y55555D01*
X340243Y53791D01*
X341242Y52296D01*
X342737Y51297D01*
X344501Y50947D01*
X346265Y51297D01*
X347760Y52296D01*
X348759Y53791D01*
X349109Y55555D01*
X348759Y57319D01*
X347760Y58814D01*
X346265Y59813D01*
X344501Y60164D01*
D02*
G37*
%LPD*%
D12*
X195140Y133350D02*
G03*
X195482Y133692I0J342D01*
G01*
X195946Y142240D02*
G03*
X195482Y141776I0J-464D01*
G01*
X344542Y86955D02*
G03*
X340056Y91440I-4485J0D01*
G01*
X324242D02*
G03*
X317160Y84358I0J-7082D01*
G01*
X313350Y71120D02*
G03*
X317160Y74930I0J3810D01*
G01*
X195140Y127440D02*
Y133350D01*
X214630Y84500D02*
Y99060D01*
X195482Y141776D02*
Y147135D01*
X195000Y147618D02*
X195482Y147135D01*
X243840Y152400D02*
X267970D01*
X272732Y157162D01*
X293672D01*
X240971Y149531D02*
X243840Y152400D01*
X168108Y55769D02*
X173623Y61284D01*
X227654D01*
X168108Y53888D02*
Y55769D01*
X166870Y52650D02*
X168108Y53888D01*
X166370Y52650D02*
X166870D01*
X288709Y15224D02*
X288865Y15067D01*
X288709Y15224D02*
Y18631D01*
X254327Y22533D02*
X284807D01*
X288709Y18631D01*
X232867Y43993D02*
X254327Y22533D01*
X167266Y43993D02*
X232867D01*
X227654Y61284D02*
X236220Y69850D01*
X194310Y119380D02*
X214630Y99060D01*
X132169Y140970D02*
X143674Y129465D01*
X92710Y140970D02*
X132169D01*
X143674Y116681D02*
Y129465D01*
X88900Y137160D02*
X92710Y140970D01*
X88900Y107950D02*
Y137160D01*
X173630Y124565D02*
Y152760D01*
X168910Y157480D02*
X173630Y152760D01*
Y124565D02*
X193958Y104237D01*
X157234Y151376D02*
X166421D01*
X162560Y157480D02*
X168910D01*
X143422Y165188D02*
X157234Y151376D01*
X66040Y102090D02*
Y134514D01*
X56393Y144160D02*
X66040Y134514D01*
X34290Y144160D02*
X56393D01*
X-8810D02*
X34290D01*
X39463Y154967D02*
X46815Y147616D01*
X35243Y154967D02*
X39463D01*
X46815Y147616D02*
X124173D01*
X25921Y159413D02*
X27801D01*
X27887Y159499D02*
X32366D01*
X32366Y159499D01*
X25256Y158748D02*
X25921Y159413D01*
X27801D02*
X27887Y159499D01*
X43191Y159499D02*
X49906Y152785D01*
X32366Y159499D02*
X43191D01*
X49906Y152785D02*
X127839D01*
X45738Y164495D02*
X52916Y157317D01*
X76904D01*
X19727Y164495D02*
X45738D01*
X127839Y152785D02*
X129369Y151255D01*
X76904Y157317D02*
X76953Y157267D01*
X132552D01*
X129369Y151255D02*
X130310D01*
X41910Y176530D02*
X57130Y161311D01*
X132552Y157267D02*
X138430Y151389D01*
X138399Y161311D02*
X148580Y151130D01*
X57130Y161311D02*
X138399D01*
X7602Y130160D02*
X11176Y126586D01*
X-8810Y130160D02*
X7602D01*
X103940Y133121D02*
X126907D01*
X236192Y154912D02*
X244180Y162900D01*
X236192Y144509D02*
Y154912D01*
X234950Y125730D02*
X240971Y131751D01*
Y149531D01*
X244180Y162900D02*
X259080D01*
X241300Y95579D02*
X243840Y98119D01*
Y99060D01*
X241300Y66040D02*
Y95579D01*
X232012Y56752D02*
X241300Y66040D01*
X244942Y62062D02*
Y91004D01*
X252730Y98792D01*
X232271Y49391D02*
X244942Y62062D01*
X252730Y98792D02*
Y99060D01*
X236220Y69850D02*
Y88900D01*
X176118Y56752D02*
X232012D01*
X175726Y49391D02*
X232271D01*
X166369Y44890D02*
X167266Y43993D01*
X196850Y125730D02*
X234950D01*
X295910Y159400D02*
Y162900D01*
X293672Y157162D02*
X295910Y159400D01*
X195482Y133692D02*
Y141776D01*
X195140Y127440D02*
X196850Y125730D01*
X195946Y142240D02*
X198673D01*
X166401Y48941D02*
X167996Y47346D01*
X273130Y119900D02*
X273880Y120650D01*
X261620Y104140D02*
X271642D01*
X249580Y125070D02*
Y141900D01*
Y125070D02*
X254000Y120650D01*
X273880D01*
X271642Y104140D02*
X273130Y102652D01*
Y94361D02*
Y102652D01*
X287340Y140970D02*
X296942D01*
X297835Y141863D01*
Y151785D02*
X298884Y152834D01*
X297835Y141863D02*
Y151785D01*
X298884Y152834D02*
X310716D01*
X313710Y149840D01*
Y128290D02*
Y149840D01*
X281551Y129099D02*
X282380Y128270D01*
X281551Y129099D02*
Y133751D01*
X284470Y136670D01*
X284680D01*
X286410Y138400D01*
Y141900D01*
X293130Y107710D02*
X313710Y128290D01*
X299720Y120650D02*
X305410Y126340D01*
Y141900D01*
X293130Y94361D02*
Y107710D01*
X286410Y141900D02*
X287340Y140970D01*
X282380Y120650D02*
X299720D01*
X273150Y129000D02*
Y133830D01*
X268580Y138400D02*
X273150Y133830D01*
Y129000D02*
X273880Y128270D01*
X268580Y138400D02*
Y141900D01*
X143510Y176530D02*
X162560Y157480D01*
X138430Y151130D02*
Y151389D01*
X77382Y165188D02*
X143422D01*
X67310Y175260D02*
X77382Y165188D01*
X67310Y175260D02*
Y176530D01*
X317546Y66335D02*
X322607Y71396D01*
X317546Y55427D02*
Y66335D01*
X316327Y54208D02*
X317546Y55427D01*
X314701Y54208D02*
X316327D01*
X313482Y55427D02*
X314701Y54208D01*
X313482Y55427D02*
Y64901D01*
X312263Y66120D02*
X313482Y64901D01*
X307437Y66120D02*
X312263D01*
X301371D02*
X307437D01*
X322607Y71396D02*
X322962Y71751D01*
Y81955D01*
X324242Y91440D02*
X340056D01*
X317160Y74930D02*
Y84358D01*
X301371Y71120D02*
X313350D01*
D15*
X203200Y142240D02*
Y151130D01*
X139119Y52070D02*
X149860D01*
X139120Y40190D02*
Y49530D01*
Y33443D02*
Y40190D01*
X99146Y92954D02*
X104417D01*
X104888Y93425D01*
X77015Y91115D02*
X97308D01*
X99146Y92954D01*
X223520Y102870D02*
X234950Y114300D01*
X278130D01*
X283130Y109300D01*
X228600Y77470D02*
Y101600D01*
X222250Y71120D02*
X228600Y77470D01*
X149860Y71120D02*
X222250D01*
X97350Y107950D02*
X113030D01*
X149860Y71120D01*
X110490Y119380D02*
X153670Y76200D01*
X219710D01*
X223520Y80010D01*
Y102870D01*
X228600Y101600D02*
X236220Y109220D01*
X283130Y94361D02*
Y109300D01*
X236220Y109220D02*
X274320D01*
X278130Y105410D01*
Y94361D02*
Y105410D01*
Y15240D02*
Y16510D01*
X66040Y102090D02*
X77015Y91115D01*
X299555Y20471D02*
X300193Y19833D01*
X299555Y20471D02*
Y25965D01*
X297581Y27940D02*
X299555Y25965D01*
X256540Y27940D02*
X297581D01*
X243840Y40640D02*
Y50440D01*
X243976Y50577D01*
X243840Y40640D02*
X256540Y27940D01*
X163671Y96678D02*
X178315D01*
X179535Y97899D01*
X200448Y153882D02*
X203200Y151130D01*
X185006Y153882D02*
X200448D01*
X335881Y65983D02*
X352838D01*
X317815Y47917D02*
X335881Y65983D01*
X321966Y127656D02*
X339501D01*
X312420Y118110D02*
X321966Y127656D01*
X310932Y76120D02*
X312420Y77608D01*
X301371Y76120D02*
X310932D01*
X312420Y77608D02*
Y118110D01*
X299883Y47917D02*
X317815D01*
X299883D02*
X301371Y49405D01*
Y56120D01*
X293169Y47917D02*
X299883D01*
X285677Y36790D02*
X288130Y39243D01*
X285600Y36790D02*
X285677D01*
X284870Y36060D02*
X285600Y36790D01*
X288130Y39243D02*
Y47879D01*
X284870Y35560D02*
Y36060D01*
X293250Y35680D02*
X293370Y35560D01*
X293130Y47879D02*
X293250Y47759D01*
Y35680D02*
Y47759D01*
X278130Y71120D02*
X283130Y76120D01*
X301371D01*
X159439Y61649D02*
X166369D01*
X149860Y52070D02*
X159439Y61649D01*
X138775Y60036D02*
X139120Y59691D01*
X138775Y60036D02*
Y71335D01*
X138430Y71680D02*
X138775Y71335D01*
D19*
X186250Y130810D02*
D03*
X194750D02*
D03*
X139120Y59691D02*
D03*
X130121Y59690D02*
D03*
Y49940D02*
D03*
X139120Y49941D02*
D03*
X130121Y30439D02*
D03*
X139120Y30440D02*
D03*
X130121Y40189D02*
D03*
X139120Y40190D02*
D03*
X284870Y35560D02*
D03*
X293370D02*
D03*
X331511Y18565D02*
D03*
X322512Y18564D02*
D03*
X273880Y128270D02*
D03*
X282380D02*
D03*
X282380Y120650D02*
D03*
X273880D02*
D03*
D22*
X166369Y61649D02*
D03*
X166370Y52650D02*
D03*
X166369Y44890D02*
D03*
Y36390D02*
D03*
X179069Y108639D02*
D03*
X179070Y99640D02*
D03*
D26*
X300193Y19833D02*
D03*
X313193D02*
D03*
D61*
X314960Y18564D02*
Y34290D01*
X88900Y31750D02*
Y65690D01*
X130120Y25836D02*
Y80268D01*
X276354Y14734D02*
X278130Y16510D01*
X88900Y31750D02*
X105916Y14734D01*
X276354D01*
X158097Y22860D02*
X166369Y31132D01*
X130120Y25836D02*
X133096Y22860D01*
X158097D01*
X278130Y10160D02*
Y15240D01*
X167977Y7620D02*
X229870D01*
X245110Y-7620D01*
X166369Y31132D02*
Y35435D01*
X287572Y-7620D02*
X303423Y8230D01*
X166370Y45720D02*
Y51868D01*
X270510Y-7620D02*
X287572D01*
X245110D02*
X270510D01*
X168910Y176530D02*
X194310D01*
X352838Y65983D02*
X355652D01*
X359841Y13131D02*
Y61794D01*
X355652Y65983D02*
X359841Y61794D01*
X326587Y8140D02*
X336030D01*
X300283Y8230D02*
X303423D01*
X354850Y8140D02*
X359841Y13131D01*
X336030Y8140D02*
X354850D01*
X314960Y1796D02*
Y18564D01*
X321183D01*
X314960Y34290D02*
X321925Y41255D01*
X339502D01*
X326497Y-10770D02*
X326587Y-10680D01*
X336030D01*
X339090Y-7620D01*
Y5080D01*
X336030Y8140D02*
X339090Y5080D01*
X326497Y8230D02*
X326587Y8140D01*
X314960Y1796D02*
X317936Y-1180D01*
X326407D01*
X326497Y-1270D01*
X300193Y8320D02*
Y19833D01*
Y8320D02*
X300283Y8230D01*
X371717Y176530D02*
X379337Y168910D01*
X194310Y176530D02*
X371717D01*
X379337Y168910D02*
X386080D01*
D62*
X89115Y97750D02*
X89330Y97534D01*
X89115Y97750D02*
Y107735D01*
X88900Y107950D02*
X89115Y107735D01*
X178648Y131336D02*
X179174Y130810D01*
X186250D01*
X178326Y131336D02*
X178648D01*
X102870Y133350D02*
X103098Y133122D01*
X127948Y132080D02*
X128270D01*
X329832Y8230D02*
X331511Y9909D01*
Y18565D01*
D65*
X41910Y176530D02*
D03*
X168910D02*
D03*
X143510D02*
D03*
X118110D02*
D03*
X92710D02*
D03*
X67310D02*
D03*
X270510Y-7620D02*
D03*
X245110D02*
D03*
X219710D02*
D03*
X194310D02*
D03*
X67310D02*
D03*
X92710D02*
D03*
X118110D02*
D03*
X143510D02*
D03*
X168910D02*
D03*
D66*
X194310Y176530D02*
D03*
X41910Y-7620D02*
D03*
D67*
X386080Y168910D02*
D03*
X0D02*
D03*
X386080Y0D02*
D03*
X0D02*
D03*
D68*
X344501Y113355D02*
D03*
Y55555D02*
D03*
D69*
X381000Y127655D02*
D03*
X381001Y41254D02*
D03*
D70*
X339501Y127656D02*
D03*
X339502Y41255D02*
D03*
D71*
X207973Y141928D02*
D03*
X392769Y89605D02*
D03*
Y76905D02*
D03*
Y62934D02*
D03*
X371972Y62803D02*
D03*
Y76773D02*
D03*
Y89473D02*
D03*
X349250Y151130D02*
D03*
X339090D02*
D03*
X328930D02*
D03*
X302260Y102870D02*
D03*
X83820Y20320D02*
D03*
X73660D02*
D03*
X29537Y121915D02*
D03*
X100242Y40640D02*
D03*
X90082D02*
D03*
X79922D02*
D03*
X80010Y50800D02*
D03*
X69850D02*
D03*
X59690D02*
D03*
X63500Y20320D02*
D03*
Y11430D02*
D03*
X55880D02*
D03*
X48260D02*
D03*
X139500Y30568D02*
D03*
X104888Y93425D02*
D03*
X214630Y84500D02*
D03*
X195000Y147618D02*
D03*
X59690Y40640D02*
D03*
X88172Y97700D02*
D03*
X166370Y35560D02*
D03*
Y7620D02*
D03*
X243976Y50577D02*
D03*
X288865Y15067D02*
D03*
X278130Y16510D02*
D03*
X88842Y65690D02*
D03*
X278130Y10160D02*
D03*
X166421Y151376D02*
D03*
X178326Y131336D02*
D03*
X34290Y144160D02*
D03*
X35243Y154967D02*
D03*
X25256Y158748D02*
D03*
X19727Y164495D02*
D03*
X-18962Y121920D02*
D03*
X11176Y126586D02*
D03*
X88900Y107950D02*
D03*
X41910Y123190D02*
D03*
X128270Y132080D02*
D03*
X102870Y133350D02*
D03*
X236192Y144509D02*
D03*
X236220Y88900D02*
D03*
X243840Y99060D02*
D03*
X176118Y56752D02*
D03*
X175726Y49391D02*
D03*
X252730Y99060D02*
D03*
X276093Y77354D02*
D03*
X185006Y153882D02*
D03*
X-8810Y144160D02*
D03*
X352838Y65983D02*
D03*
X261620Y104140D02*
D03*
X130048Y81280D02*
D03*
X273970Y120511D02*
D03*
X66040Y102090D02*
D03*
X179069Y108639D02*
D03*
X194310Y119380D02*
D03*
X193958Y104237D02*
D03*
X138430Y151130D02*
D03*
X148580D02*
D03*
X124173Y147616D02*
D03*
X130310Y151255D02*
D03*
X97350Y107950D02*
D03*
X110490Y119380D02*
D03*
X166401Y48941D02*
D03*
X138430Y71680D02*
D03*
X322962Y81955D02*
D03*
X344542Y86955D02*
D03*
X-8810Y130160D02*
D03*
X-8890Y121920D02*
D03*
X1182Y121915D02*
D03*
X49530Y100242D02*
D03*
Y90170D02*
D03*
X49525Y80098D02*
D03*
X49530Y71032D02*
D03*
Y60960D02*
D03*
X49525Y50888D02*
D03*
X69762Y40640D02*
D03*
X49618Y40645D02*
D03*
X20496Y11435D02*
D03*
X30568Y11430D02*
D03*
X40640D02*
D03*
D72*
X153671Y106681D02*
D03*
X143671D02*
D03*
X163671Y96678D02*
D03*
X143671D02*
D03*
X163671Y106681D02*
D03*
X163673Y116681D02*
D03*
X143674D02*
D03*
X153671D02*
D03*
Y96678D02*
D03*
D73*
X204048Y142240D02*
D03*
X197272D02*
D03*
D74*
X259080Y162400D02*
D03*
X249580Y142400D02*
D03*
X268580D02*
D03*
X305410D02*
D03*
X286410D02*
D03*
X295910Y162400D02*
D03*
D75*
X301371Y86120D02*
D03*
Y81120D02*
D03*
Y76120D02*
D03*
Y71120D02*
D03*
Y66120D02*
D03*
Y61120D02*
D03*
Y56120D02*
D03*
X254889D02*
D03*
Y61120D02*
D03*
Y66120D02*
D03*
Y71120D02*
D03*
Y76120D02*
D03*
Y81120D02*
D03*
Y86120D02*
D03*
D76*
X293130Y47879D02*
D03*
X288130D02*
D03*
X283130D02*
D03*
X278130D02*
D03*
X273130D02*
D03*
X268130D02*
D03*
X263130D02*
D03*
Y94361D02*
D03*
X268130D02*
D03*
X273130D02*
D03*
X278130D02*
D03*
X283130D02*
D03*
X288130D02*
D03*
X293130D02*
D03*
D77*
X278130Y71120D02*
D03*
D78*
X326497Y8230D02*
D03*
Y-1270D02*
D03*
Y-10770D02*
D03*
D79*
X303423D02*
D03*
Y8230D02*
D03*
M02*
