M48
;Layer_Color=9474304
;FILE_FORMAT=4:4
METRIC,LZ
;TYPE=PLATED
T1F00S00C0.3000
T2F00S00C0.3048
T4F00S00C0.9000
T5F00S00C2.0000
;TYPE=NON_PLATED
T6F00S00C0.6500
%
T01
X00020496Y00011435
X00030568Y0001143
X0004064
X0004826
X0005588
X000635
Y0002032
X0007366
X0008382
X00079922Y0004064
X00090082
X00100242
X0008001Y000508
X0006985
X0005969
Y0004064
X00069762
X00049618Y00040645
X00049525Y00050888
X0004953Y0006096
Y00071032
X00049525Y00080098
X0004953Y0009017
Y00100242
X0006604Y0010209
X00088172Y000977
X000889Y0010795
X0009735
X00104888Y00093425
X0011049Y0011938
X00130048Y0008128
X0013843Y0007168
X001395Y00030568
X0016637Y0003556
X00166401Y00048941
X00175726Y00049391
X00176118Y00056752
X00179069Y00108639
X00193958Y00104237
X0019431Y0011938
X0021463Y000845
X0023622Y000889
X0024384Y0009906
X0025273
X0026162Y0010414
X0027397Y00120511
X00276093Y00077354
X00322962Y00081955
X0030226Y0010287
X00288865Y00015067
X0027813Y0001651
Y0001016
X00243976Y00050577
X0016637Y0000762
X00088842Y0006569
X00029537Y00121915
X00001182
X-0000889Y0012192
X-00018962
X00344542Y00086955
X00352838Y00065983
X00371972Y00062803
Y00076773
Y00089473
X00392769Y00089605
Y00076905
Y00062934
X0034925Y0015113
X0033909
X0032893
X00236192Y00144509
X00207973Y00141928
X00195Y00147618
X00185006Y00153882
X00166421Y00151376
X0014858Y0015113
X0013843
X0013031Y00151255
X00124173Y00147616
X0012827Y0013208
X0010287Y0013335
X0004191Y0012319
X0003429Y0014416
X00035243Y00154967
X00025256Y00158748
X00019727Y00164495
X00011176Y00126586
X-0000881Y0013016
Y0014416
X00178326Y00131336
T02
X00143671Y00096678
X00153671
X00163671
Y00106681
X00153671
X00143671
X00143674Y00116681
X00153671
X00163673
T04
X0004191Y-0000762
X0006731
X0009271
X0011811
X0014351
X0016891
X0019431
X0021971
X0024511
X0027051
X0019431Y0017653
X0016891
X0014351
X0011811
X0009271
X0006731
X0004191
T05
X0Y0
X0038608
Y0016891
X0
T06
X00344501Y00055555
Y00113355
M30
