G04*
G04 #@! TF.GenerationSoftware,Altium Limited,Altium Designer,21.6.4 (81)*
G04*
G04 Layer_Color=16711935*
%FSLAX44Y44*%
%MOMM*%
G71*
G04*
G04 #@! TF.SameCoordinates,711A6483-5E67-4E50-9913-089A3A40D486*
G04*
G04*
G04 #@! TF.FilePolarity,Positive*
G04*
G01*
G75*
%ADD88C,0.1000*%
%ADD89C,0.0508*%
D88*
X88890Y146120D02*
G03*
X88890Y146120I-5000J0D01*
G01*
X253430Y17470D02*
X283830D01*
X253430Y31470D02*
X283830D01*
X253430Y17470D02*
Y31470D01*
X283830Y17470D02*
Y31470D01*
X243880Y145400D02*
Y159400D01*
X274280Y145400D02*
Y159400D01*
X243880D02*
X274280D01*
X243880Y145400D02*
X274280D01*
X280710D02*
X311110D01*
X280710Y159400D02*
X311110D01*
Y145400D02*
Y159400D01*
X280710Y145400D02*
Y159400D01*
X51890Y114120D02*
Y155120D01*
X92890Y114120D02*
Y155120D01*
X51890Y114120D02*
X92890D01*
X51890Y155120D02*
X92890D01*
D89*
X298850Y-26416D02*
Y9118D01*
Y-26416D02*
X348850D01*
Y9118D01*
X298850D02*
X348850D01*
X234080Y159792D02*
X284080D01*
X234080D02*
Y195326D01*
X284080D01*
Y159792D02*
Y195326D01*
X298850Y159792D02*
X348850D01*
X298850D02*
Y195326D01*
X348850D01*
Y159792D02*
Y195326D01*
M02*
